<svg width="66" height="62" viewBox="0 0 66 62" fill="none" xmlns="http://www.w3.org/2000/svg">
<path d="M33.3144 61.5C29.3144 51 0 39.4552 0 17.3815C0 -1.61848 16.8144 0.036424 16.8144 0.036424C31.8826 0.0364356 33.3084 11.9446 33.3544 16.0272C33.7799 8.8673 37.7486 0.036438 52.3144 0.036438C51.8144 0.036438 66.8144 1.03644 65.8144 17.3815C64.6016 37.204 39.3144 51 33.3144 61.5Z" fill="#DD3838"/>
<path d="M21.3873 29.0403L26.0739 33.2904L23.788 35.8405L16.7007 29.1782L23.6272 21.976L26.0969 24.3078L21.3873 29.0403ZM31.3004 38H27.9118L34.7349 21.528H38.1235L31.3004 38ZM39.9384 24.3078L42.4081 21.976L49.3346 29.1782L42.2472 35.8405L39.9614 33.2904L44.648 29.0403L39.9384 24.3078Z" fill="white"/>
</svg>
